<?xml version="1.0" standalone="no"?>
<!DOCTYPE svg PUBLIC "-//W3C//DTD SVG 20010904//EN"
 "http://www.w3.org/TR/2001/REC-SVG-20010904/DTD/svg10.dtd">
<svg version="1.0" xmlns="http://www.w3.org/2000/svg"
 width="256.000000pt" height="256.000000pt" viewBox="0 0 256.000000 256.000000"
 preserveAspectRatio="xMidYMid meet">
<metadata>
Created by potrace 1.11, written by Peter Selinger 2001-2013
</metadata>
<g transform="translate(0.000000,256.000000) scale(0.100000,-0.100000)"
fill="#000000" stroke="none">
<path d="M1233 2485 c0 -8 4 -15 9 -15 4 0 8 4 8 9 0 6 -4 12 -8 15 -5 3 -9
-1 -9 -9z"/>
<path d="M1177 2456 c3 -5 -5 -7 -21 -4 -14 3 -26 1 -26 -5 0 -6 -3 -7 -7 -4
-3 4 -13 1 -21 -6 -13 -10 -14 -9 -7 2 5 8 -6 4 -25 -9 -32 -23 -33 -23 -47
-4 -14 18 -15 18 -8 -4 6 -22 5 -23 -15 -12 -12 6 -24 9 -28 6 -3 -3 0 -6 6
-6 7 0 12 -5 12 -11 0 -6 -7 -8 -16 -5 -8 3 -13 2 -10 -3 3 -4 -6 -13 -20 -20
-14 -6 -23 -7 -20 -2 3 5 0 11 -8 14 -10 4 -12 0 -9 -14 6 -20 -24 -52 -39
-43 -5 3 -8 0 -8 -5 0 -6 -5 -11 -11 -11 -6 0 -8 9 -4 20 4 11 2 20 -4 20 -6
0 -10 -3 -10 -7 4 -22 -2 -43 -10 -38 -5 3 -12 1 -15 -4 -4 -5 -1 -13 5 -17 7
-4 9 -3 6 2 -3 6 4 11 15 11 20 2 20 1 2 -12 -23 -18 -44 -19 -44 -3 0 6 -3 8
-6 5 -4 -4 -2 -12 4 -20 13 -15 0 -42 -20 -42 -7 0 -13 -5 -13 -12 0 -7 -9
-23 -20 -35 -11 -13 -19 -26 -17 -30 1 -4 -5 -5 -13 -2 -8 4 -15 10 -15 16 0
5 4 7 9 3 5 -3 12 -1 15 4 12 19 -25 4 -39 -15 -12 -18 -12 -21 0 -21 8 0 11
5 8 10 -3 6 -1 7 5 4 13 -9 9 -36 -7 -46 -7 -5 -13 -12 -14 -17 -1 -5 -5 -8
-9 -6 -5 1 -8 -5 -8 -14 0 -8 5 -12 10 -9 6 4 5 -5 -2 -19 -6 -14 -15 -26 -20
-26 -4 0 -8 -7 -8 -16 0 -9 5 -12 12 -8 7 4 8 3 4 -4 -4 -6 -13 -9 -21 -6 -12
5 -12 10 -3 27 7 12 11 26 10 30 -1 5 2 6 8 2 5 -3 10 -2 10 3 0 5 -12 14 -28
21 -22 9 -24 9 -12 -1 19 -16 20 -40 1 -46 -9 -3 -11 0 -6 8 5 9 4 11 -4 6 -9
-6 -9 -11 0 -22 6 -8 8 -14 5 -14 -4 0 -1 -9 7 -21 13 -17 13 -25 2 -47 -14
-26 -11 -47 6 -37 5 4 9 1 9 -4 0 -10 -7 -13 -27 -10 -5 1 -7 5 -6 10 2 5 -1
9 -5 9 -5 0 -9 -13 -9 -30 0 -16 6 -30 12 -30 7 0 11 -14 11 -34 -1 -19 -4
-32 -9 -29 -4 2 -4 9 -1 15 4 7 2 8 -5 4 -14 -9 -11 16 4 26 15 12 -7 10 -25
-2 -12 -8 -12 -10 -1 -10 8 0 11 -3 8 -7 -4 -3 -2 -12 4 -20 9 -10 8 -17 -1
-28 -7 -8 -9 -15 -4 -15 5 0 0 -8 -11 -17 -14 -11 -15 -14 -3 -10 25 9 30 -4
11 -32 -13 -20 -13 -23 -1 -14 8 7 19 9 23 5 5 -4 5 1 2 11 -4 10 -3 16 2 12
5 -3 12 1 14 7 4 10 6 10 6 1 1 -7 -9 -23 -21 -35 -26 -26 -31 -47 -17 -64 7
-9 5 -16 -8 -23 -10 -6 -13 -11 -6 -11 6 0 10 -8 8 -17 -1 -10 -8 -17 -15 -15
-6 1 -9 -2 -5 -8 5 -8 11 -7 21 1 9 7 14 8 14 1 0 -6 -5 -14 -10 -17 -6 -4 -8
-10 -5 -15 3 -5 -3 -14 -12 -20 -16 -10 -16 -11 -1 -6 29 9 30 -11 1 -46 -26
-32 -26 -32 -2 -10 14 12 29 19 34 15 4 -5 5 0 2 10 -4 10 -3 16 2 12 5 -3 12
1 14 7 4 10 6 10 6 1 1 -7 -9 -23 -21 -35 -29 -29 -33 -58 -10 -65 14 -3 19
-13 18 -38 -1 -18 -4 -31 -9 -28 -4 2 -4 9 -1 15 4 7 2 8 -5 4 -14 -9 -11 16
4 26 7 5 6 8 -1 8 -5 0 -19 -7 -30 -15 -19 -15 -19 -15 1 -8 11 3 17 3 13 -2
-4 -4 -3 -14 3 -22 9 -10 8 -17 -1 -28 -7 -8 -9 -15 -4 -15 5 0 0 -8 -11 -17
-14 -11 -15 -14 -3 -10 25 9 30 -4 11 -32 -13 -20 -13 -23 -1 -14 8 7 19 9 23
5 5 -4 5 1 2 11 -4 10 -3 16 2 12 5 -3 12 1 14 7 4 10 6 10 6 1 1 -7 -9 -23
-21 -35 -26 -26 -31 -47 -17 -64 7 -9 5 -16 -8 -23 -10 -6 -13 -11 -6 -11 6 0
10 -8 8 -17 -1 -10 -8 -17 -15 -15 -6 1 -9 -2 -5 -8 5 -8 11 -7 21 1 9 7 14 8
14 1 0 -6 -5 -14 -10 -17 -6 -4 -8 -10 -5 -15 3 -5 -3 -14 -12 -20 -16 -10
-16 -11 -1 -6 29 9 30 -11 1 -46 -26 -32 -26 -32 -2 -10 14 12 29 19 34 15 4
-5 5 0 2 10 -4 10 -3 16 2 12 5 -3 12 1 14 7 4 10 6 10 6 1 1 -7 -9 -23 -21
-35 -29 -29 -33 -58 -10 -65 14 -3 19 -13 18 -38 -1 -18 -4 -31 -9 -28 -4 2
-4 9 -1 15 4 7 2 8 -5 4 -14 -9 -11 16 4 26 7 5 6 8 -1 8 -5 0 -19 -7 -30 -15
-18 -15 -18 -15 0 -8 13 4 17 3 12 -5 -3 -6 -2 -13 3 -17 11 -6 10 -45 -1 -45
-4 0 -5 -7 -2 -15 4 -8 10 -12 15 -9 5 3 7 9 5 13 -3 4 5 8 16 8 l21 2 -21
-15 c-14 -9 -19 -20 -15 -32 6 -15 5 -15 -11 -3 -13 11 -19 12 -29 2 -9 -10
-8 -12 7 -9 10 1 21 -3 24 -11 3 -10 0 -11 -9 -5 -12 6 -12 5 -1 -8 9 -12 10
-18 2 -23 -6 -4 -7 -12 -2 -18 4 -7 7 -22 6 -34 0 -12 3 -21 9 -20 5 1 12 -4
15 -12 2 -8 0 -11 -5 -8 -5 3 -10 -1 -10 -9 0 -11 6 -9 23 7 17 16 24 18 30 7
4 -7 4 -10 -1 -6 -5 5 -15 -2 -23 -13 -11 -16 -12 -23 -2 -29 6 -4 11 -10 11
-14 -3 -19 0 -26 10 -26 8 0 8 5 -1 15 -7 8 -9 15 -5 15 4 0 2 7 -5 15 -9 10
-9 15 -1 15 6 0 11 -4 11 -10 0 -19 2 -25 12 -37 6 -7 15 -10 22 -6 6 4 5 -1
-3 -10 -12 -15 -10 -18 10 -27 23 -10 23 -10 -3 -5 -22 4 -28 2 -27 -12 0 -11
3 -13 6 -6 3 9 10 10 22 3 10 -5 21 -7 24 -4 3 3 4 -1 3 -10 -1 -8 -6 -19 -11
-23 -4 -4 -5 -3 -1 4 9 17 -11 26 -31 13 -16 -9 -15 -10 5 -5 16 5 22 3 20 -7
-2 -7 -7 -16 -11 -19 -5 -3 -1 -9 8 -12 9 -4 13 -3 10 3 -3 6 -3 10 2 11 4 0
16 2 26 4 9 2 15 -1 11 -6 -3 -5 -9 -7 -13 -5 -13 8 -9 -28 5 -41 16 -17 21
-16 21 2 0 8 -4 12 -8 9 -4 -2 -11 1 -14 7 -5 7 -1 10 11 7 9 -1 17 -6 16 -10
-2 -10 41 -54 49 -51 10 3 7 -31 -4 -47 -9 -12 -9 -13 3 -2 8 6 21 12 30 12
13 -1 12 -3 -2 -14 -27 -20 -22 -29 6 -11 19 13 26 14 32 3 15 -24 13 -40 -4
-33 -14 5 -15 4 -4 -7 11 -11 16 -10 28 6 8 11 14 15 14 9 0 -5 20 -21 45 -34
25 -13 45 -27 45 -31 0 -5 9 -8 19 -8 27 0 52 -11 46 -20 -3 -5 4 -6 15 -3 13
4 27 -1 36 -13 9 -11 13 -14 10 -7 -3 6 0 10 6 9 25 -3 37 -17 32 -34 -5 -14
-4 -14 4 -2 6 8 8 18 6 22 -3 4 2 8 11 8 10 0 13 -5 9 -12 -5 -7 -3 -8 7 -2
18 11 40 14 34 5 -2 -5 13 -8 35 -7 22 1 40 6 40 11 0 6 4 3 9 -5 6 -8 7 -18
4 -24 -3 -5 -1 -6 6 -2 6 4 8 12 5 18 -5 7 -1 9 9 5 9 -3 17 -1 19 5 3 7 10 8
17 4 11 -7 11 -10 0 -18 -11 -8 -11 -9 1 -5 8 2 14 9 13 15 -2 10 80 29 100
24 4 -1 7 2 7 8 0 5 4 10 10 10 5 0 6 -8 3 -17 -6 -15 -5 -16 9 -3 9 8 14 18
11 23 -2 4 1 8 6 8 26 3 30 4 37 12 4 4 16 -1 26 -10 15 -14 19 -14 16 -3 -2
9 4 14 14 14 10 -1 16 2 13 6 -3 4 9 13 25 20 17 7 30 17 30 22 0 5 5 6 12 2
7 -5 8 -3 4 5 -6 9 -13 8 -27 -5 -10 -9 -19 -13 -19 -8 0 5 -4 4 -8 -1 -11
-16 -62 -47 -62 -38 0 8 69 57 80 58 3 0 21 15 40 32 19 18 43 33 53 33 9 0
17 5 17 11 0 5 -4 7 -10 4 -6 -4 -7 1 -3 11 5 15 7 15 15 0 5 -9 14 -16 21
-16 8 0 8 3 2 8 -19 13 -15 30 15 62 32 34 38 46 18 34 -7 -4 -9 -3 -5 1 4 5
14 10 22 11 12 2 12 -2 5 -17 -6 -10 -15 -19 -21 -19 -6 0 -7 -5 -3 -11 4 -7
12 -2 22 14 9 14 24 28 35 31 10 2 16 9 12 15 -3 6 2 11 12 12 16 0 16 1 -1 8
-14 5 -16 10 -8 15 7 4 10 11 7 16 -3 4 2 11 11 14 17 6 10 26 -9 26 -8 0 -7
-3 2 -9 11 -7 9 -10 -9 -16 -16 -5 -19 -10 -10 -15 9 -5 9 -9 1 -14 -6 -4 -8
-12 -5 -18 5 -7 2 -8 -7 -3 -12 8 -12 6 0 -8 11 -14 11 -17 0 -17 -8 0 -20 4
-27 9 -11 7 -10 9 3 15 9 3 13 11 9 17 -5 8 -3 9 6 4 10 -6 12 -4 7 9 -4 10
-1 19 9 23 13 5 13 7 2 14 -10 7 -11 9 0 9 7 0 11 4 7 9 -3 6 6 8 21 5 23 -4
25 -3 15 9 -6 8 -8 23 -4 33 6 17 5 18 -13 4 -12 -9 -10 -4 6 14 22 26 23 28
5 23 -20 -7 -20 -7 -1 8 11 8 17 18 13 21 -3 4 6 23 21 42 15 20 21 33 15 28
-7 -4 -13 -2 -13 3 0 6 -8 11 -17 12 -12 0 -8 4 10 11 25 9 29 28 6 28 -6 0
-8 -4 -5 -8 2 -4 -4 -8 -14 -9 -18 -2 -18 -1 -2 16 9 10 20 16 23 15 3 -2 15
3 25 11 18 15 18 15 -1 8 -18 -5 -17 -3 5 23 l25 29 -27 -24 c-16 -14 -28 -20
-28 -15 -1 5 -7 -2 -15 -16 -8 -14 -14 -19 -15 -12 0 6 10 22 22 34 29 29 33
58 10 65 -14 3 -19 13 -18 38 1 18 4 31 9 28 4 -2 4 -9 1 -15 -4 -7 -2 -8 5
-4 14 9 11 -16 -4 -26 -7 -5 -6 -8 1 -8 5 0 19 7 30 15 19 15 19 15 -1 8 -11
-3 -17 -3 -13 2 4 4 3 14 -3 22 -9 10 -8 17 1 28 7 8 9 15 4 15 -5 0 0 8 11
17 14 11 15 14 3 10 -25 -9 -30 4 -11 32 13 20 13 23 1 14 -8 -7 -19 -9 -23
-5 -5 4 -5 -1 -2 -11 4 -10 3 -16 -2 -12 -5 3 -12 -1 -14 -7 -4 -10 -6 -10 -6
0 -1 6 9 22 21 34 26 26 31 47 17 64 -7 9 -5 16 9 23 11 6 23 7 27 3 5 -4 5
-2 1 5 -4 7 -13 10 -21 7 -9 -4 -12 1 -10 13 1 10 8 17 15 15 6 -1 9 2 5 8 -5
8 -11 7 -21 -1 -9 -7 -14 -8 -14 -1 0 6 5 14 10 17 6 4 8 10 5 15 -3 5 3 14
12 20 17 10 17 10 -1 8 -24 -4 -30 39 -7 52 9 5 11 10 4 10 -6 0 -10 8 -8 18
1 9 8 16 15 14 6 -1 9 2 5 8 -5 8 -11 7 -21 -1 -9 -7 -14 -8 -14 -1 0 6 5 14
10 17 6 4 8 10 5 15 -3 5 3 14 12 20 16 10 16 11 1 6 -29 -9 -30 11 -1 46 26
32 26 32 2 10 -14 -12 -29 -19 -34 -15 -4 5 -5 0 -2 -10 4 -10 3 -16 -2 -12
-5 3 -12 -1 -14 -7 -4 -10 -6 -10 -6 0 -1 6 9 22 21 34 29 29 33 58 9 65 -14
3 -18 13 -17 36 1 21 -3 31 -11 30 -7 -2 -13 1 -13 6 0 6 9 9 19 8 13 -1 18
-7 16 -19 -2 -10 0 -16 6 -13 12 8 7 -18 -6 -27 -7 -5 -6 -8 1 -8 5 0 19 7 30
15 19 15 19 15 -1 8 -11 -3 -17 -3 -13 2 4 4 2 15 -5 23 -10 13 -9 14 10 8 13
-4 24 -2 29 5 4 7 3 9 -4 6 -5 -4 -17 -4 -26 -1 -15 6 -15 8 1 20 17 13 17 14
1 8 -15 -5 -18 0 -18 24 0 19 -7 35 -17 41 -17 10 -16 10 2 11 l20 1 -20 16
c-18 14 -18 15 -2 9 13 -4 17 -2 14 6 -2 7 -13 11 -23 10 -10 -2 -17 -2 -14 0
44 33 44 33 35 19 -6 -10 -4 -12 5 -6 8 5 11 4 7 -2 -4 -6 0 -16 7 -22 11 -9
16 -9 22 0 4 7 3 9 -4 5 -6 -3 -13 -2 -17 4 -3 5 0 10 7 10 8 0 6 5 -5 11 -14
8 -16 14 -6 25 6 8 8 14 3 15 -5 0 0 4 11 9 18 8 18 9 2 9 -10 1 -15 6 -12 11
3 6 0 10 -7 10 -9 0 -10 2 -2 8 8 5 7 11 -4 22 -14 13 -15 12 -9 -3 3 -9 3
-17 -2 -17 -5 0 -11 9 -14 20 -3 12 -1 18 5 14 6 -4 9 -1 6 7 -3 8 -10 14 -15
14 -6 0 -15 4 -20 9 -4 5 -3 6 4 2 19 -11 25 12 6 24 -17 11 -17 11 0 6 12 -4
17 0 17 14 0 11 6 18 13 16 6 -1 9 -1 4 1 -4 3 -5 8 -3 12 3 4 -4 8 -15 8 -10
1 -19 -3 -19 -8 0 -6 4 -7 10 -4 6 4 7 -1 3 -11 -4 -11 -8 -13 -11 -6 -2 7 -8
10 -13 6 -9 -5 8 42 23 62 4 6 2 11 -5 11 -6 0 -21 4 -31 9 -15 5 -17 4 -11
-6 5 -9 4 -11 -4 -6 -6 4 -9 11 -6 16 3 4 -1 11 -7 13 -9 4 -9 6 1 6 11 1 10
5 -5 16 -14 11 -15 14 -3 9 10 -3 20 0 24 6 3 6 3 10 -2 9 -19 -3 -43 2 -42 9
3 19 -2 33 -10 28 -16 -10 -20 23 -5 39 9 8 12 15 7 15 -5 0 -14 -5 -20 -11
-7 -7 -15 -5 -28 7 -16 16 -16 19 -1 29 9 7 16 16 16 21 0 4 -5 3 -12 -4 -17
-17 -33 -15 -18 3 7 9 10 18 6 22 -3 3 -6 1 -6 -5 0 -7 -8 -12 -17 -12 -21 1
-73 44 -73 60 0 6 -4 8 -10 5 -13 -8 -13 1 1 28 9 20 9 20 -9 -2 -21 -25 -23
-24 -50 29 -12 24 -12 24 -8 2 3 -14 0 -22 -6 -20 -6 2 -12 12 -14 22 -1 10
-6 21 -10 24 -4 4 -4 -1 -1 -11 5 -13 3 -17 -5 -14 -7 2 -12 10 -10 17 2 10
-1 10 -14 -1 -12 -9 -15 -10 -10 -1 4 7 1 15 -8 18 -9 3 -13 11 -10 16 4 6 -5
3 -19 -7 -24 -15 -26 -15 -35 1 -6 10 -22 19 -36 20 -14 0 -23 -3 -19 -9 3 -5
-4 -4 -16 2 -11 7 -21 8 -21 4 0 -4 -5 -1 -11 7 -7 10 -12 11 -15 3 -3 -7 -15
-9 -32 -4 -31 8 -64 7 -80 -3 -6 -3 -13 -2 -17 4 -3 5 -17 9 -30 8 -13 -1 -21
-6 -18 -12z m348 -36 c3 -5 1 -10 -4 -10 -6 0 -11 5 -11 10 0 6 2 10 4 10 3 0
8 -4 11 -10z m397 -377 c-6 -2 -9 -10 -6 -15 4 -7 2 -8 -5 -4 -13 9 -5 26 12
25 9 0 8 -2 -1 -6z m49 -203 c4 -32 3 -40 -5 -39 -5 0 -13 -5 -17 -13 -6 -9
-9 -9 -9 -1 0 6 7 19 16 27 14 15 11 20 -9 17 -5 -1 -6 3 -2 9 8 13 25 13 26
0z m-1364 -97 c-9 -2 -15 -8 -12 -13 3 -5 13 -7 23 -4 14 5 14 4 2 -4 -21 -14
-35 -14 -36 1 -1 20 6 27 24 26 15 -1 15 -2 -1 -6z m1347 -98 c9 -14 13 -25 8
-25 -5 0 -14 11 -20 25 -6 14 -10 25 -8 25 2 0 11 -11 20 -25z m-1341 -7 c-5
-7 -8 -25 -7 -40 2 -16 -2 -28 -7 -28 -6 0 -7 -6 -2 -12 14 -23 13 -40 -2 -28
-13 11 -14 34 -2 46 3 4 3 12 0 18 -10 15 -11 46 -2 40 4 -2 10 0 14 6 3 5 9
10 12 10 3 0 1 -6 -4 -12z m1363 -139 c0 -10 -2 -16 -5 -14 -2 3 -11 -1 -20
-7 -13 -10 -14 -10 -4 1 6 7 9 19 7 26 -3 6 1 12 8 12 8 0 14 -8 14 -18z
m-1369 4 c-9 -2 -15 -8 -12 -13 3 -5 13 -7 23 -4 14 5 14 4 2 -4 -21 -14 -35
-14 -36 1 -1 20 6 27 24 26 15 -1 15 -2 -1 -6z m1369 -111 c-2 -9 -10 -18 -20
-18 -13 -2 -13 -1 -1 3 8 2 13 8 10 13 -3 5 -13 6 -23 3 -13 -4 -13 -2 3 10
23 18 34 14 31 -11z m-1363 7 c-6 -6 -9 -17 -7 -24 3 -6 -1 -12 -8 -12 -8 0
-14 8 -14 18 0 10 4 16 7 13 4 -2 10 0 14 6 3 5 9 10 13 10 3 0 1 -5 -5 -11z
m1363 -74 c-1 -8 -5 -17 -8 -21 -4 -3 -4 -13 -2 -22 4 -12 2 -11 -7 2 -9 15
-9 21 -1 24 7 2 9 9 5 15 -14 22 -13 39 2 27 7 -6 12 -17 11 -25z m-28 -60
c-3 -3 -9 2 -12 12 -6 14 -5 15 5 6 7 -7 10 -15 7 -18z m-1341 -2 c-9 -2 -15
-8 -12 -13 3 -5 13 -7 23 -4 14 5 14 4 2 -4 -21 -14 -35 -14 -36 1 -1 20 6 27
24 26 15 -1 15 -2 -1 -6z m1369 -31 c-2 -9 -10 -18 -20 -18 -13 -2 -13 -1 -1
3 8 2 13 8 10 13 -3 5 -13 6 -23 3 -13 -4 -13 -2 3 10 23 18 34 14 31 -11z m0
-67 c-1 -8 -5 -17 -9 -21 -3 -4 -3 -12 0 -18 8 -12 12 -48 5 -41 -3 3 -12 -1
-21 -8 -13 -10 -14 -10 -5 3 6 8 9 27 8 43 -2 15 2 27 7 27 6 0 7 6 2 13 -14
22 -13 39 2 27 7 -6 12 -17 11 -25z m-1363 -7 c-5 -7 -8 -25 -7 -40 2 -16 -2
-28 -7 -28 -6 0 -7 -6 -2 -12 14 -23 13 -40 -2 -28 -13 11 -14 34 -2 46 3 4 3
12 0 18 -10 15 -11 46 -2 40 4 -2 10 0 14 6 3 5 9 10 12 10 3 0 1 -6 -4 -12z
m-6 -135 c-9 -2 -15 -8 -12 -13 3 -5 13 -7 23 -4 14 5 14 4 2 -4 -21 -14 -35
-14 -36 1 -1 20 6 27 24 26 15 -1 15 -2 -1 -6z m1369 -31 c-2 -9 -10 -18 -20
-18 -13 -2 -13 -1 -1 3 8 2 13 8 10 13 -3 5 -13 6 -23 3 -13 -4 -13 -2 3 10
23 18 34 14 31 -11z m-1363 -73 c-6 -6 -9 -17 -7 -24 3 -6 -1 -12 -8 -12 -8 0
-14 8 -14 18 0 10 4 16 7 13 4 -2 10 0 14 6 3 5 9 10 13 10 3 0 1 -5 -5 -11z
m1363 -60 c0 -10 -2 -16 -5 -14 -2 3 -11 -1 -20 -7 -13 -10 -14 -10 -4 1 6 7
9 19 7 26 -3 6 1 12 8 12 8 0 14 -8 14 -18z m-1359 -75 c-3 -3 -12 -4 -19 -1
-8 3 -5 6 6 6 11 1 17 -2 13 -5z m6 -81 c-3 -7 -10 -13 -16 -13 -5 0 -2 -10 9
-22 10 -12 13 -18 6 -14 -10 6 -13 3 -10 -10 2 -11 10 -18 17 -16 9 2 9 -3 1
-19 -9 -16 -14 -18 -26 -8 -8 7 -12 20 -9 30 4 11 1 19 -6 19 -8 0 -9 3 0 13
6 8 9 16 6 19 -3 3 1 11 9 17 8 7 12 20 9 29 -4 14 -3 14 5 3 6 -8 8 -20 5
-28z m1342 -1 c-3 -3 -11 0 -18 7 -9 10 -8 11 6 5 10 -3 15 -9 12 -12z m-20
-11 c3 -5 2 -12 -3 -15 -5 -3 -9 1 -9 9 0 17 3 19 12 6z"/>
<path d="M606 617 c3 -10 9 -15 12 -12 3 3 0 11 -7 18 -10 9 -11 8 -5 -6z"/>
<path d="M1042 2435 c-7 -8 -9 -15 -4 -15 5 0 15 7 22 15 16 19 -1 19 -18 0z"/>
<path d="M1550 2440 c0 -5 5 -10 11 -10 5 0 7 5 4 10 -3 6 -8 10 -11 10 -2 0
-4 -4 -4 -10z"/>
<path d="M949 2423 c-13 -16 -12 -17 4 -4 9 7 17 15 17 17 0 8 -8 3 -21 -13z"/>
<path d="M1645 2380 c-3 -5 -1 -10 4 -10 6 0 11 5 11 10 0 6 -2 10 -4 10 -3 0
-8 -4 -11 -10z"/>
<path d="M872 2360 c-6 -10 -8 -21 -3 -24 13 -8 31 18 23 31 -6 9 -11 6 -20
-7z"/>
<path d="M795 2329 c-4 -6 -5 -12 -2 -15 2 -3 7 2 10 11 7 17 1 20 -8 4z"/>
<path d="M1710 2323 c5 -12 16 -25 23 -30 16 -10 41 -14 32 -5 -4 4 -11 8 -16
8 -22 3 -23 5 -9 15 13 9 13 10 0 6 -8 -2 -21 3 -28 12 -11 14 -12 13 -2 -6z"/>
<path d="M767 2249 c6 -23 9 -24 16 -5 3 8 0 17 -7 19 -10 4 -12 -1 -9 -14z"/>
<path d="M746 2245 c7 -18 6 -18 -9 -6 -11 9 -17 10 -17 2 0 -6 4 -11 8 -11 5
0 9 -7 9 -15 0 -8 -4 -15 -9 -15 -4 0 -8 -5 -8 -11 0 -8 5 -7 15 1 9 7 13 15
10 18 -3 3 0 11 7 19 8 10 8 17 -1 26 -10 9 -11 8 -5 -8z"/>
<path d="M1815 2240 c-4 -6 -11 -8 -16 -5 -15 10 -10 -1 7 -15 12 -11 15 -11
12 1 -2 8 3 13 10 11 8 -1 11 2 7 8 -8 13 -12 13 -20 0z"/>
<path d="M700 2205 c-7 -9 -8 -15 -2 -15 5 0 12 7 16 15 3 8 4 15 2 15 -2 0
-9 -7 -16 -15z"/>
<path d="M1838 2195 c-10 -10 40 -58 54 -52 8 4 7 6 -4 6 -16 1 -23 12 -19 34
1 5 -3 6 -8 3 -5 -4 -11 -1 -13 5 -2 5 -6 7 -10 4z"/>
<path d="M1914 2136 c1 -8 5 -18 8 -22 4 -3 5 1 4 10 -1 8 -5 18 -8 22 -4 3
-5 -1 -4 -10z"/>
<path d="M639 2128 c7 -9 10 -22 6 -29 -5 -8 0 -7 16 1 30 16 39 24 19 18 -8
-3 -24 2 -35 11 -18 15 -19 15 -6 -1z"/>
<path d="M1893 2096 c0 -8 3 -15 6 -14 3 0 8 -1 11 -2 19 -7 39 -7 34 1 -3 5
-10 7 -15 4 -5 -4 -12 1 -15 9 -8 20 -21 21 -21 2z"/>
<path d="M620 2091 c0 -6 4 -13 10 -16 6 -3 7 1 4 9 -7 18 -14 21 -14 7z"/>
<path d="M575 1991 c-3 -5 -1 -12 5 -16 6 -4 7 -11 4 -17 -4 -6 -2 -8 4 -4 6
3 13 2 17 -4 3 -5 2 -10 -3 -10 -5 0 -12 -10 -15 -22 -6 -22 -6 -22 13 2 19
25 19 25 -1 46 -10 11 -16 24 -12 27 3 4 4 7 0 7 -3 0 -8 -4 -12 -9z"/>
<path d="M1975 1960 c3 -5 8 -10 11 -10 2 0 4 5 4 10 0 6 -5 10 -11 10 -5 0
-7 -4 -4 -10z"/>
<path d="M1954 1938 c3 -21 16 -38 29 -38 8 0 8 3 -1 9 -8 4 -13 11 -13 15 3
18 0 26 -8 26 -5 0 -8 -6 -7 -12z"/>
<path d="M1973 1710 c-1 -11 2 -22 6 -24 4 -3 7 4 8 14 1 11 -2 22 -6 24 -4 3
-7 -4 -8 -14z"/>
<path d="M555 1280 c3 -5 8 -10 11 -10 2 0 4 5 4 10 0 6 -5 10 -11 10 -5 0 -7
-4 -4 -10z"/>
<path d="M1990 960 c0 -5 5 -10 11 -10 5 0 7 5 4 10 -3 6 -8 10 -11 10 -2 0
-4 -4 -4 -10z"/>
<path d="M1990 690 c-6 -11 -8 -20 -6 -20 3 0 10 9 16 20 6 11 8 20 6 20 -3 0
-10 -9 -16 -20z"/>
<path d="M550 680 c0 -5 5 -10 11 -10 5 0 7 5 4 10 -3 6 -8 10 -11 10 -2 0 -4
-4 -4 -10z"/>
<path d="M1956 663 c-3 -4 -1 -12 5 -20 9 -10 8 -13 -1 -13 -8 0 -10 -3 -7 -7
4 -3 2 -12 -4 -19 -6 -8 -7 -14 0 -18 6 -4 8 -13 4 -21 -3 -8 -1 -15 5 -15 11
0 11 18 -1 37 -4 6 -3 14 2 17 5 4 11 0 14 -6 3 -7 4 1 2 17 -1 17 2 33 7 36
5 3 3 9 -5 12 -8 3 -18 3 -21 0z"/>
<path d="M549 637 c6 -8 7 -18 3 -22 -4 -5 -1 -5 6 -1 10 6 10 11 1 22 -6 8
-14 14 -16 14 -3 0 0 -6 6 -13z"/>
<path d="M593 515 c0 -8 4 -12 9 -9 5 3 6 10 3 15 -9 13 -12 11 -12 -6z"/>
<path d="M1956 513 c-6 -14 -5 -15 5 -6 7 7 10 15 7 18 -3 3 -9 -2 -12 -12z"/>
<path d="M639 473 c-13 -16 -12 -17 4 -4 9 7 17 15 17 17 0 8 -8 3 -21 -13z"/>
<path d="M1935 481 c-3 -5 -2 -12 3 -15 5 -3 9 1 9 9 0 17 -3 19 -12 6z"/>
<path d="M1870 371 c0 -6 4 -13 10 -16 6 -3 7 1 4 9 -7 18 -14 21 -14 7z"/>
<path d="M1812 350 c-10 -16 -9 -21 9 -31 11 -6 23 -8 26 -6 2 3 -5 8 -16 12
-12 3 -19 11 -15 16 4 7 10 6 18 0 8 -7 17 -6 26 1 12 8 12 9 -2 4 -10 -3 -21
1 -25 9 -7 12 -11 11 -21 -5z"/>
<path d="M750 320 c0 -5 5 -10 11 -10 5 0 7 -5 3 -12 -4 -7 -3 -8 4 -4 6 4 9
13 5 21 -6 17 -23 20 -23 5z"/>
<path d="M730 300 c0 -5 5 -10 11 -10 5 0 7 5 4 10 -3 6 -8 10 -11 10 -2 0 -4
-4 -4 -10z"/>
<path d="M775 280 c-3 -5 -2 -10 4 -10 5 0 13 5 16 10 3 6 2 10 -4 10 -5 0
-13 -4 -16 -10z"/>
<path d="M1732 264 c-24 -16 -29 -34 -10 -34 6 0 8 3 5 7 -10 10 31 35 45 27
7 -4 8 -3 4 4 -9 16 -17 15 -44 -4z"/>
<path d="M839 233 c-12 -16 -12 -17 2 -6 9 7 20 9 24 5 5 -4 5 -1 1 6 -9 16
-11 15 -27 -5z"/>
<path d="M1745 240 c-3 -6 1 -7 9 -4 18 7 21 14 7 14 -6 0 -13 -4 -16 -10z"/>
<path d="M893 193 c1 -17 4 -19 14 -11 15 12 18 22 4 14 -5 -4 -11 0 -14 6 -3
7 -4 3 -4 -9z"/>
<path d="M914 169 c-3 -6 -1 -16 6 -22 10 -9 11 -9 5 2 -4 8 -2 17 6 22 9 6
10 9 2 9 -6 0 -15 -5 -19 -11z"/>
<path d="M945 160 c-3 -6 1 -7 9 -4 18 7 21 14 7 14 -6 0 -13 -4 -16 -10z"/>
<path d="M973 135 c0 -8 4 -12 9 -9 5 3 6 10 3 15 -9 13 -12 11 -12 -6z"/>
<path d="M1540 140 c0 -5 5 -10 11 -10 5 0 7 5 4 10 -3 6 -8 10 -11 10 -2 0
-4 -4 -4 -10z"/>
<path d="M1570 140 c0 -5 5 -10 11 -10 5 0 7 5 4 10 -3 6 -8 10 -11 10 -2 0
-4 -4 -4 -10z"/>
<path d="M1007 127 c-3 -8 1 -14 8 -14 7 0 11 6 8 14 -3 7 -6 13 -8 13 -2 0
-5 -6 -8 -13z"/>
<path d="M1467 106 c-4 -10 -1 -13 8 -9 8 3 12 9 9 14 -7 12 -11 11 -17 -5z"/>
<path d="M1415 99 c-4 -6 -5 -12 -2 -15 2 -3 7 2 10 11 7 17 1 20 -8 4z"/>
<path d="M1196 82 c-3 -5 1 -9 9 -9 8 0 12 4 9 9 -3 4 -7 8 -9 8 -2 0 -6 -4
-9 -8z"/>
<path d="M1270 80 c0 -5 5 -10 11 -10 5 0 7 5 4 10 -3 6 -8 10 -11 10 -2 0 -4
-4 -4 -10z"/>
</g>
</svg>
